<?xml version="1.0"?>
<!--Icons from directory ""-->
<svg xmlns="http://www.w3.org/2000/svg" width="27" height="351" viewBox="0 0 27 351"><svg xmlns:xlink="http://www.w3.org/1999/xlink" id="diggblack25" xml:space="preserve" height="27" viewBox="-1 -1 27 27" width="27" version="1.1" y="0" x="0px" enable-background="new 0 0 25 25"><path d="m0 22.5c0 1.379 1.12 2.5 2.5 2.5h20c1.382 0 2.5-1.121 2.5-2.5v-20c0-1.38-1.118-2.5-2.5-2.5h-20c-1.38 0-2.5 1.12-2.5 2.5v20z"/><g fill="#FEFEFE"><path d="m24.136 13.01c0 1.625-0.006 3.252 0.006 4.877 0 0.238-0.074 0.291-0.299 0.289-1.759-0.008-3.517-0.007-5.273-0.002-0.235 0.002-0.354-0.006-0.317-0.318 0.054-0.438 0.041-0.885 0.002-1.323-0.024-0.242 0.058-0.267 0.249-0.267 0.96 0.004 1.917-0.011 2.876 0.01 0.285 0.005 0.347-0.092 0.343-0.354-0.013-0.667-0.002-0.667-0.666-0.667-0.857 0-1.709-0.005-2.567 0.002-0.185 0.001-0.235-0.025-0.233-0.24 0.016-2.247 0.014-4.493 0.006-6.741 0-0.484-0.018-0.484 0.478-0.484h5.021c0.379 0 0.379 0 0.379 0.365-0.005 1.617-0.005 3.235-0.005 4.853z"/><path d="m17.229 12.98c0 1.637-0.004 3.271 0.004 4.909 0 0.211-0.043 0.289-0.276 0.287-1.776-0.011-3.555-0.009-5.332 0-0.213 0.002-0.275-0.057-0.268-0.268 0.015-0.448 0.015-0.905 0-1.354-0.006-0.216 0.043-0.291 0.279-0.287 0.951 0.016 1.9-0.004 2.846 0.012 0.247 0.004 0.296-0.078 0.294-0.303-0.008-0.728 0.003-0.728-0.734-0.728-0.799 0-1.598-0.006-2.397 0.004-0.205 0.002-0.289-0.028-0.289-0.271 0.01-2.313 0.009-4.626 0-6.938 0-0.22 0.071-0.259 0.274-0.257 1.777 0.008 3.555 0.01 5.332-0.001 0.234-0.001 0.273 0.076 0.273 0.286-0.009 1.638-0.006 3.274-0.006 4.909z"/><path d="m6.869 10.111c0 1.664-0.003 3.326 0.006 4.99 0 0.121-0.027 0.149-0.129 0.151-0.047 0.001-0.093 0.001-0.141 0.001-1.787 0-3.571-0.003-5.358 0.008-0.213 0-0.261-0.062-0.261-0.268 0.007-2.321 0.009-4.643 0-6.965 0-0.206 0.066-0.244 0.255-0.241 0.978 0.009 1.955 0 2.933 0.009 0.193 0.001 0.258-0.048 0.255-0.25-0.009-0.77 0.009-1.54-0.009-2.311-0.006-0.278 0.043-0.389 0.358-0.372 0.6 0.03 1.203 0.02 1.804 0.002 0.225-0.006 0.287 0.061 0.287 0.284-0.009 1.653-0.005 3.308-0.005 4.962h0.005z"/><path d="m10.349 11.536c0 1.174-0.005 2.349 0.006 3.522 0.001 0.16-0.043 0.187-0.18 0.186-0.705-0.005-1.41-0.008-2.114 0.001-0.143 0.001-0.166-0.05-0.166-0.179 0.004-2.354 0.007-4.701 0-7.05 0-0.192 0.065-0.234 0.243-0.231 0.667 0.01 1.333 0.01 2.001 0 0.178 0 0.217 0.059 0.217 0.228-0.005 1.174-0.002 2.348-0.002 3.523h-0.005z"/><path d="m9.106 6.776c-0.329 0-0.657-0.008-0.986 0.002-0.166 0.007-0.231-0.037-0.227-0.217 0.013-0.478 0.011-0.958 0.002-1.436-0.004-0.178 0.044-0.254 0.235-0.25 0.667 0.009 1.334 0.007 2 0 0.15-0.001 0.227 0.033 0.226 0.2-0.006 0.507-0.005 1.015 0.003 1.522 0.002 0.16-0.078 0.182-0.21 0.181-0.347-0.006-0.696-0.002-1.043-0.002z"/></g><g fill="#010101"><path d="m20.699 11.513c0-0.488 0.015-0.978-0.007-1.465-0.014-0.247 0.076-0.312 0.3-0.288 0.159 0.016 0.321 0.014 0.481 0.002 0.174-0.012 0.248 0.035 0.246 0.23-0.011 1.033-0.012 2.066-0.004 3.099 0.002 0.181-0.068 0.22-0.23 0.229-0.788 0.032-0.788 0.034-0.791-0.736 0.003-0.358 0.005-0.715 0.005-1.071z"/><path d="m14.772 11.552c0 0.507-0.006 1.015 0.004 1.523 0.003 0.172-0.026 0.246-0.229 0.249-0.785 0.007-0.785 0.015-0.785-0.773 0-0.846 0.008-1.692-0.007-2.537-0.002-0.202 0.06-0.267 0.255-0.251 0.239 0.018 0.558-0.075 0.706 0.047 0.161 0.13 0.041 0.458 0.047 0.7 0.012 0.347 0.002 0.696 0.002 1.042h0.007z"/><path d="m4.425 11.541c0 0.507-0.007 1.014 0.004 1.521 0.004 0.197-0.063 0.254-0.259 0.257-0.759 0.006-0.759 0.012-0.759-0.741 0-0.855 0.005-1.708-0.003-2.562-0.003-0.191 0.045-0.277 0.246-0.255 0.248 0.029 0.582-0.106 0.727 0.06 0.124 0.142 0.042 0.465 0.044 0.706 0.004 0.34 0.001 0.677 0 1.014z"/></g></svg><svg xmlns:xlink="http://www.w3.org/1999/xlink" id="fb25" xml:space="preserve" height="27" viewBox="-1 -1 27 27" width="27" version="1.1" y="27" x="0px" enable-background="new 0 0 25 25"><path d="m22.5 0h-20c-1.38 0-2.5 1.12-2.5 2.5v20c0 1.379 1.12 2.5 2.5 2.5h20c1.379 0 2.5-1.121 2.5-2.5v-20c0-1.38-1.121-2.5-2.5-2.5z" fill="#3B5998"/><path d="m16.26 11.256v-2.47h3.768v-2.531h-4.266c-1.381 0-2.031 0.885-2.031 2.266v2.735h-2.455v2.531h2.453v6.232h2.529v-6.232h3l1.001-2.531h-3.999z" fill="#fff"/></svg><svg xmlns:xlink="http://www.w3.org/1999/xlink" id="gp25" xml:space="preserve" height="27" viewBox="-1 -1 27 27" width="27" version="1.1" y="54" x="0px" enable-background="new 0 0 25 25"><path d="m22.5 0h-20c-1.38 0-2.5 1.12-2.5 2.5v20c0 1.379 1.12 2.5 2.5 2.5h20c1.379 0 2.5-1.121 2.5-2.5v-20c0-1.38-1.121-2.5-2.5-2.5z" fill="#DD4B39"/><path d="m20.018 8.712v-2.472h-1.256v2.472h-2.512v1.295h2.512v2.55h1.256v-2.55h2.475v-1.295h-2.475zm-8.065 8.835c-2.086-1.521-2.598-2.382-0.605-3.922 1.123-0.867 1.909-2.023 1.909-3.454 0-1.555-0.637-2.967-1.833-3.653h1.695l1.443-1.515h-6.46c-4.033 0-6.01 2.417-6.01 5.076 0 2.717 1.864 4.856 5.504 4.856-0.565 1.14-0.339 2.192 0.584 2.943-6.218 0-7.547 3.314-7.547 5.415 0 0.647 0.188 1.211 0.508 1.703h3.179c-0.786-0.697-1.253-1.636-1.253-2.616 0-1.934 2.199-3.758 4.793-3.729 2.878 0 4.593 1.949 4.593 3.828 0 0.961-0.386 1.85-1.156 2.517h2.34c0.711-0.87 1.053-1.854 1.053-2.743-0.001-1.817-0.681-3.163-2.737-4.706zm-3.734-3.57c-1.741-0.053-3.396-1.648-3.696-3.935-0.302-2.288 0.866-4.039 2.607-3.986 1.74 0.053 3.23 1.928 3.53 4.214 0.3 2.287-0.702 3.757-2.441 3.707z" fill="#fff"/></svg><svg xmlns:xlink="http://www.w3.org/1999/xlink" id="ljpsd25" xml:space="preserve" height="27" viewBox="-1 -1 27 27" width="27" version="1.1" y="81" x="0px" enable-background="new 0 0 25 25"><path d="m13.292 1.581c-1.652 0-3.223 0.344-4.647 0.96l-2.573-2.569h-0.005c-2.717 1.19-4.893 3.377-6.067 6.101l2.577 2.573-0.003 0.002c-0.622 1.429-0.991 2.983-0.991 4.64 0 6.47 5.242 11.712 11.709 11.712 6.468 0 11.708-5.242 11.708-11.712 0-6.464-5.24-11.707-11.708-11.707" fill="#00A3D9"/><path d="m12.098 18.155c1.173-2.724 3.351-4.911 6.066-6.1l-9.518-9.508h-0.006c-2.715 1.189-4.893 3.377-6.066 6.103l9.524 9.505z" fill="#003040"/><path d="m18.846 15.301c-1.576 0.69-2.84 1.961-3.521 3.543l4.445 0.92-0.924-4.463z" fill="#003040"/><path d="m18.846 15.301c-0.355-1.707-0.68-3.25-0.68-3.25l-0.004 0.002c-2.713 1.191-4.891 3.375-6.064 6.101l3.224 0.688c0.686-1.572 1.951-2.851 3.524-3.541" fill="#fff"/></svg><svg xmlns:xlink="http://www.w3.org/1999/xlink" id="mail25" xml:space="preserve" height="27" viewBox="-1 -1 27 27" width="27" version="1.1" y="108" x="0px" enable-background="new 0 0 25 25"><path d="m12.5 0c-6.904 0-12.5 5.596-12.5 12.5s5.596 12.5 12.5 12.5 12.5-5.596 12.5-12.5-5.596-12.5-12.5-12.5zm-6.25 6.25h12.5c0.223 0 0.439 0.048 0.641 0.139l-6.891 8.036-6.889-8.036c0.199-0.09 0.415-0.139 0.639-0.139zm-1.562 10.938v-9.376c0-0.032 0.001-0.064 0.004-0.098l4.581 5.347-4.531 4.53c-0.035-0.13-0.054-0.267-0.054-0.403zm14.062 1.562h-12.5c-0.137 0-0.274-0.02-0.404-0.055l4.447-4.445 2.207 2.576 2.207-2.576 4.447 4.447c-0.131 0.035-0.267 0.054-0.404 0.053zm1.562-1.562c0 0.138-0.021 0.273-0.055 0.404l-4.531-4.531 4.582-5.346c0.002 0.033 0.004 0.065 0.004 0.098v9.375z" fill="#7A9199"/></svg><svg xmlns:xlink="http://www.w3.org/1999/xlink" id="moimir25" xml:space="preserve" height="27" viewBox="-1 -1 27 27" width="27" version="1.1" y="135" x="0px" enable-background="new 0 0 25 25"><path d="m0.002 0h24.998v5.156c-2.436 0.127-4.874-0.05-7.312 0.16-3.055-2.007-7.298-1.98-10.326 0.078-2.441-0.337-4.907-0.166-7.362-0.137l0.002-5.257z" fill="#0B71D7"/><path d="m7.365 5.393c3.025-2.057 7.268-2.084 10.326-0.077 1.041 0.688 1.951 1.585 2.58 2.666 0.063 0.116 0.185 0.344 0.244 0.459-0.729 0.077-1.457 0.151-2.188 0.23-1.931-2.61-5.702-3.535-8.672-2.302-1.232 0.476-2.256 1.39-2.947 2.507-0.747-0.076-1.493-0.151-2.239-0.225 0.125-0.24 0.256-0.48 0.397-0.711 0.635-1.018 1.51-1.872 2.499-2.547z" fill="#FFBE08"/><path d="m0.002 5.255c2.453-0.027 4.922-0.2 7.363 0.137-0.989 0.677-1.863 1.53-2.497 2.547-1.621-0.069-3.244-0.104-4.866-0.05v-2.634z" fill="#096BCC"/><path d="m17.688 5.315c2.435-0.21 4.875-0.031 7.312-0.16v2.786c-1.574-0.123-3.15-0.061-4.729 0.039-0.63-1.08-1.541-1.973-2.583-2.665z" fill="#096BCC"/><path d="m9.655 6.369c2.971-1.233 6.744-0.308 8.672 2.302l0.146 0.215c-0.479-0.364-0.988-0.688-1.477-1.04-2.2-1.782-5.443-2.1-7.935-0.742-0.961 0.478-1.623 1.34-2.306 2.135-0.112 0.094-0.335 0.29-0.445 0.389 0.126-0.256 0.257-0.505 0.395-0.752 0.692-1.117 1.718-2.032 2.95-2.507z" fill="#014C96"/><path d="m9.065 7.105c2.489-1.357 5.735-1.042 7.937 0.74l0.161 0.319c-0.599-0.085-1.149 0.11-1.515 0.596-0.936-0.793-2.103-1.366-3.352-1.361-2.354-0.06-4.506 1.784-5.026 4.045-0.025 0.092-0.072 0.276-0.097 0.369-0.278 0.45-0.725 0.749-1.181 1 0.071-1.221 0.381-2.415 0.764-3.571 0.684-0.797 1.348-1.662 2.309-2.137z" fill="#0968C7"/><path d="m7.271 11.442c0.52-2.263 2.671-4.104 5.026-4.046 1.25-0.003 2.417 0.569 3.352 1.361 0.363-0.486 0.916-0.681 1.515-0.596 0.498 1.108 0.196 2.36 0.276 3.533-0.647-0.007-1.291-0.017-1.938-0.027-0.095-0.259-0.184-0.526-0.322-0.765-0.871-1.722-3.381-2.212-4.883-1.033-0.566 0.415-0.861 1.077-1.1 1.716l-0.064 0.178c-0.623-0.105-1.243-0.21-1.862-0.321z" fill="#FEB406"/><path d="m0.002 7.889c1.622-0.051 3.245-0.018 4.866 0.051-0.143 0.233-0.274 0.472-0.399 0.712-0.323 0.65-0.542 1.343-0.703 2.049-1.224 0.339-2.503 0.366-3.764 0.277v-3.089z" fill="#0865C1"/><path d="m17.002 7.844c0.488 0.352 0.993 0.676 1.477 1.04 0.6 0.901 0.869 1.973 0.967 3.04-0.002 1.725-0.264 3.729-1.693 4.883-0.416-0.785-0.312-1.688-0.312-2.543 0.009-0.857 0.002-1.712 0.002-2.566-0.08-1.172 0.224-2.425-0.276-3.532l-0.165-0.322z" fill="#065DB5"/><path d="m20.271 7.982c1.579-0.101 3.154-0.161 4.729-0.037v3.096c-1.225-0.078-2.447-0.085-3.67-0.026-0.014-0.078-0.038-0.229-0.055-0.305-0.135-0.789-0.409-1.547-0.76-2.266-0.062-0.117-0.179-0.347-0.244-0.462z" fill="#0865C1"/><path d="m18.327 8.67c0.731-0.078 1.459-0.154 2.188-0.23 0.351 0.72 0.625 1.48 0.76 2.268-0.022 0.375-0.062 0.748-0.098 1.121-0.578 0.03-1.156 0.063-1.734 0.093-0.102-1.066-0.373-2.137-0.971-3.041l-0.145-0.211z" fill="#FEB106"/><path d="m3.767 10.701c0.161-0.706 0.381-1.398 0.703-2.05 0.746 0.074 1.492 0.15 2.239 0.224-0.139 0.248-0.272 0.498-0.396 0.754-0.578 1.121-0.738 2.411-0.66 3.658-0.676-0.068-1.353-0.139-2.031-0.206-0.025-0.651-0.008-1.302 0.061-1.953 0.022-0.108 0.065-0.32 0.084-0.427z" fill="#FDAE06"/><path d="m10.296 9.869c1.501-1.176 4.011-0.689 4.882 1.035-0.98-0.667-2.097-1.381-3.341-1.201-1.155 0.094-1.966 1.037-2.637 1.884 0.235-0.64 0.531-1.301 1.096-1.718z" fill="#014C96"/><path d="m6.312 9.628c0.113-0.097 0.335-0.292 0.444-0.39-0.385 1.157-0.693 2.351-0.763 3.572 0.457-0.25 0.904-0.547 1.181-1-0.19 1.242 0.176 2.479 0.776 3.565 0.275 0.602 0.569 1.208 1.033 1.689 0.261 0.289 0.522 0.588 0.784 0.884-0.359 0.049-0.712 0.098-1.067 0.146-0.406-0.262-0.79-0.556-1.151-0.874-1.067-1.043-1.718-2.459-1.895-3.934-0.08-1.247 0.08-2.536 0.658-3.658z" fill="#0559AD"/><path d="m9.197 11.587c0.674-0.847 1.484-1.791 2.637-1.884 1.247-0.183 2.359 0.534 3.343 1.201 0.142 0.238 0.229 0.505 0.323 0.763 0.184 1.084 0.039 2.283-0.716 3.128-1.146 1.432-3.573 1.598-4.835 0.235-0.837-0.856-0.957-2.134-0.816-3.267l0.064-0.176z" fill="#065EB5"/><path d="m0.002 10.977c1.261 0.088 2.54 0.061 3.765-0.275-0.02 0.106-0.062 0.32-0.084 0.428-0.22 1.077-0.378 2.162-0.495 3.255-1.06 0.107-2.122 0.143-3.186 0.104v-3.512z" fill="#065FB6"/><path d="m21.275 10.708c0.017 0.078 0.041 0.229 0.055 0.305 0.046 0.308 0.083 0.62 0.111 0.927 0.125 1.814-0.275 3.646-1.219 5.207-0.606 0.646-1.246 1.489-2.224 1.494-0.72 0.09-1.354-0.314-1.89-0.75-0.158-0.293-0.252-0.623-0.34-0.947-0.023-0.209-0.041-0.424-0.056-0.635-1.231 1.09-2.963 1.668-4.59 1.252-1.299-0.293-2.354-1.177-3.176-2.188-0.6-1.084-0.966-2.32-0.776-3.566 0.025-0.092 0.074-0.277 0.098-0.37 0.617 0.112 1.237 0.217 1.86 0.322-0.139 1.133-0.021 2.412 0.816 3.267 1.262 1.363 3.689 1.197 4.833-0.234 0.758-0.848 0.902-2.046 0.719-3.128 0.645 0.012 1.289 0.022 1.938 0.026 0 0.857 0.006 1.709-0.004 2.569 0 0.855-0.103 1.756 0.313 2.544 1.433-1.155 1.692-3.157 1.696-4.884 0.578-0.031 1.156-0.063 1.734-0.093 0.045-0.369 0.083-0.742 0.102-1.118z" fill="#FC9E04"/><path d="m21.33 11.014c1.223-0.059 2.445-0.051 3.67 0.026v3.784c-1.066 0.011-2.139-0.032-3.201-0.131-0.126-0.914-0.254-1.833-0.354-2.753-0.03-0.309-0.066-0.619-0.115-0.926z" fill="#065EB5"/><path d="m3.188 14.386c0.118-1.093 0.276-2.178 0.495-3.254-0.071 0.649-0.086 1.3-0.061 1.951 0.039 0.498 0.103 0.994 0.175 1.487 0.069 1.19 0.447 2.324 0.842 3.443-1.544 0.137-3.098 0.118-4.637-0.015v-3.513c1.065 0.042 2.127 0.008 3.186-0.099z" fill="#0457AA"/><path d="m21.441 11.941c0.101 0.921 0.231 1.838 0.354 2.752 1.065 0.098 2.132 0.141 3.203 0.131v5.933c-2.866 0.027-5.733 0.095-8.599-0.008-0.135-0.431-0.264-0.858-0.407-1.289-0.104-0.392-0.405-0.847-0.874-0.772-0.594 0.07-1.152 0.303-1.741 0.393-1.615 0.238-3.285-0.156-4.68-0.982 0.355-0.05 0.708-0.099 1.067-0.146-0.261-0.293-0.522-0.592-0.784-0.885 1.059 0.646 2.256 1.188 3.523 1.086 1.193-0.023 2.234-0.67 3.264-1.202 0.088 0.323 0.185 0.651 0.34 0.946 0.328 1.08 1.642 1.562 2.617 1.043 0.778-0.299 1.172-1.075 1.496-1.791 0.949-1.563 1.346-3.395 1.221-5.209z" fill="#0353A2"/><path d="m3.622 13.081c0.676 0.067 1.353 0.138 2.031 0.206 0.177 1.477 0.828 2.89 1.895 3.936-0.835 0.051-1.669 0.094-2.505 0.131-0.579-0.848-0.969-1.805-1.246-2.785-0.073-0.495-0.135-0.99-0.175-1.488z" fill="#FC9E04"/><path d="m3.798 14.566c0.276 0.981 0.666 1.941 1.246 2.787 0.122 0.183 0.248 0.366 0.375 0.554 0.787 1.659 2.477 2.62 4.16 3.174 1.759 0.538 3.717 0.713 5.476 0.077 0.434-0.123 0.592-0.575 0.783-0.93 0.085-0.248 0.119-0.513 0.156-0.771 0.145 0.428 0.275 0.858 0.408 1.289 2.863 0.103 5.731 0.034 8.598 0.007v4.245h-24.998v-6.998c1.54 0.13 3.096 0.148 4.637 0.011-0.394-1.116-0.771-2.252-0.841-3.445z" fill="#014C96"/><path d="m7.95 15.377c0.823 1.012 1.877 1.896 3.176 2.188 1.628 0.416 3.356-0.162 4.59-1.254 0.015 0.213 0.031 0.429 0.056 0.639-1.028 0.531-2.069 1.179-3.264 1.203-1.271 0.103-2.467-0.441-3.523-1.086-0.466-0.483-0.76-1.088-1.035-1.69z" fill="#0E3C81"/><path d="m5.043 17.355c0.835-0.037 1.668-0.08 2.505-0.135 0.361 0.319 0.745 0.612 1.151 0.874 1.395 0.827 3.066 1.224 4.68 0.983 0.59-0.09 1.148-0.323 1.743-0.393 0.469-0.074 0.769 0.381 0.872 0.772-0.037 0.259-0.071 0.522-0.156 0.771-0.872 0.711-2.043 0.828-3.128 0.86-2.735 0.046-5.511-1.071-7.291-3.182-0.13-0.18-0.254-0.366-0.376-0.55z" fill="#FB9102"/><path d="m18 18.643c0.977-0.004 1.616-0.853 2.225-1.494-0.326 0.711-0.718 1.487-1.496 1.789-0.975 0.521-2.291 0.037-2.617-1.041 0.534 0.429 1.169 0.835 1.888 0.746z" fill="#123A7A"/><path d="m5.417 17.91c1.78 2.109 4.555 3.229 7.291 3.182 1.086-0.031 2.257-0.148 3.128-0.859-0.189 0.354-0.352 0.809-0.785 0.931-1.759 0.637-3.716 0.46-5.474-0.077-1.681-0.557-3.372-1.517-4.16-3.177z" fill="#0F3777"/></svg><svg xmlns:xlink="http://www.w3.org/1999/xlink" id="ok25" xml:space="preserve" height="27" viewBox="-1 -1 27 27" width="27" version="1.1" y="162" x="0px" enable-background="new 0 0 25 25"><path d="m22.5 0h-20c-1.38 0-2.5 1.12-2.5 2.5v20c0 1.379 1.12 2.5 2.5 2.5h20c1.379 0 2.5-1.121 2.5-2.5v-20c0-1.38-1.121-2.5-2.5-2.5z" fill="#ED812B"/><path d="m12.502 12.59c2.488 0 4.512-2.02 4.512-4.503s-2.023-4.504-4.512-4.504c-2.487 0-4.51 2.02-4.51 4.504 0.001 2.483 2.023 4.503 4.51 4.503zm0-6.357c1.07 0 1.941 0.841 1.941 1.872s-0.869 1.871-1.941 1.871c-1.069 0-1.94-0.84-1.94-1.871s0.872-1.872 1.94-1.872zm5.049 7.165c-0.402-0.618-1.25-0.807-1.895-0.416-1.918 1.166-4.391 1.166-6.309 0-0.643-0.39-1.49-0.204-1.894 0.416-0.403 0.619-0.211 1.437 0.43 1.828 0.847 0.512 1.768 0.877 2.721 1.086l-2.62 2.526c-0.537 0.517-0.537 1.354 0 1.873 0.269 0.259 0.619 0.39 0.97 0.39s0.703-0.131 0.971-0.39l2.575-2.481 2.576 2.481c0.537 0.519 1.406 0.519 1.939 0 0.539-0.519 0.539-1.356 0-1.873l-2.619-2.526c0.955-0.209 1.875-0.574 2.723-1.086 0.645-0.391 0.835-1.208 0.432-1.828z" fill="#fff"/></svg><svg xmlns:xlink="http://www.w3.org/1999/xlink" id="sf25" xml:space="preserve" height="27" viewBox="-1 -1 27 27" width="27" version="1.1" y="189" x="0px" enable-background="new 0 0 25 25"><path d="m0 22.5c0 1.379 1.12 2.5 2.5 2.5h20c1.382 0 2.5-1.121 2.5-2.5v-20c0-1.38-1.118-2.5-2.5-2.5h-20c-1.38 0-2.5 1.12-2.5 2.5v20z" fill="#26AFF5"/><path d="m2.093 8.845c2.486 0.34 4.973 0.68 7.554 1.033-1.341-1.732-2.621-3.384-3.9-5.037 0.014-0.017 0.028-0.034 0.043-0.051 0.799 0.427 1.601 0.853 2.401 1.28 2.333 1.25 4.67 2.499 7 3.759 0.231 0.126 0.354 0.099 0.525-0.093 0.815-0.922 1.652-1.826 2.471-2.746 0.156-0.175 0.322-0.219 0.549-0.24 0.679-0.065 1.283 0.11 1.886 0.411 0.737 0.369 1.501 0.688 2.324 1.062-0.755 0.231-1.437 0.44-2.116 0.646-0.391 0.119-0.783 0.244-1.177 0.35-0.185 0.049-0.265 0.129-0.287 0.331-0.077 0.709-0.185 1.416-0.272 2.126-0.02 0.153-0.084 0.259-0.187 0.36-1.392 1.381-2.784 2.76-4.17 4.144-0.118 0.119-0.24 0.162-0.406 0.156-0.634-0.017-1.268-0.009-1.901-0.035-0.22-0.011-0.312 0.073-0.379 0.264-0.137 0.397-0.27 0.801-0.444 1.184-0.293 0.645-0.398 1.307-0.362 2.014 0.038 0.748 0.008 1.498 0.008 2.284-0.875-0.247-1.729-0.485-2.581-0.731-0.644-0.188-0.64-0.195-0.312-0.79 1.069-1.925 2.208-3.812 3.22-5.769 0.138-0.266 0.123-0.381-0.152-0.535-3.064-1.725-6.12-3.463-9.177-5.2-0.064-0.03-0.121-0.068-0.178-0.103 0.006-0.027 0.013-0.05 0.02-0.074z" fill="#FEFEFE"/></svg><svg xmlns:xlink="http://www.w3.org/1999/xlink" id="share" height="27" viewBox="-1 -1 27 27" width="27" version="1.1" y="216" x="0px"><path d="m22.5 0h-20c-1.38 0-2.5 1.12-2.5 2.5v20c0 1.379 1.12 2.5 2.5 2.5h20c1.379 0 2.5-1.121 2.5-2.5v-20c0-1.38-1.121-2.5-2.5-2.5z" fill="#DAE3E6"/><path d="m16.143 15.137c-0.885 0-1.675 0.42-2.199 1.074l-4.307-2.623c0.05-0.219 0.079-0.445 0.079-0.681 0-0.36-0.065-0.703-0.177-1.021l4.485-2.931c0.522 0.603 1.277 0.983 2.119 0.983 1.576 0 2.857-1.329 2.857-2.969s-1.281-2.969-2.857-2.969-2.855 1.33-2.855 2.969c0 0.229 0.027 0.451 0.074 0.665l-4.636 3.028c-0.5-0.45-1.151-0.725-1.865-0.725-1.581 0-2.86 1.33-2.86 2.97 0 1.638 1.279 2.97 2.86 2.968 0.836 0 1.588-0.376 2.11-0.975l4.366 2.66c-0.031 0.178-0.051 0.358-0.051 0.545 0 1.641 1.279 2.97 2.857 2.97 1.574 0 2.855-1.329 2.855-2.97 0.002-1.638-1.279-2.968-2.855-2.968z" fill="#7A9199"/></svg><svg xmlns:xlink="http://www.w3.org/1999/xlink" id="stumbleupon25" xml:space="preserve" height="27" viewBox="-1 -1 27 27" width="27" version="1.1" y="243" x="0px" enable-background="new 0 0 25 25"><path d="m12.5 0c-6.904 0-12.5 5.596-12.5 12.5s5.596 12.5 12.5 12.5 12.5-5.596 12.5-12.5-5.596-12.5-12.5-12.5zm0 6.25c-0.861 0-1.562 0.701-1.562 1.562v6.25c0 2.586-2.103 4.688-4.688 4.688s-4.688-2.102-4.688-4.688v-3.125h3.125v3.125c0 0.861 0.701 1.562 1.562 1.562s1.562-0.701 1.562-1.562v-6.25c0-2.585 2.103-4.688 4.688-4.688 2.586 0 4.688 2.103 4.688 4.346v1.514l-2.002 0.586-1.123-0.586v-1.513c0-0.52-0.701-1.221-1.562-1.221zm6.25 12.5c-2.586 0-4.688-2.102-4.688-5.029v-3.027l1.123 0.586 2.002-0.586v3.027c0 1.203 0.701 1.904 1.562 1.904s1.562-0.701 1.562-1.562v-3.125h3.125v3.125c0.002 2.585-2.1 4.687-4.686 4.687z" fill="#EB4924"/></svg><svg xmlns:xlink="http://www.w3.org/1999/xlink" id="tm25" xml:space="preserve" height="27" viewBox="-1 -1 27 27" width="27" version="1.1" y="270" x="0px" enable-background="new 0 0 25 25"><path d="m0 22.5c0 1.382 1.119 2.5 2.5 2.5h20c1.379 0 2.5-1.118 2.5-2.5v-20c0-1.38-1.121-2.5-2.5-2.5h-20c-1.381 0-2.5 1.12-2.5 2.5v20z" fill="#34526F"/><path d="m15.055 16.6c-0.382 0-0.719-0.088-1.014-0.267-0.223-0.131-0.377-0.306-0.457-0.526-0.083-0.221-0.125-0.717-0.125-1.488v-3.746h3.172v-2.095h-3.172v-3.125h-1.889c-0.085 0.687-0.24 1.253-0.466 1.698s-0.524 0.571-0.896 0.888-1.354 0.562-1.877 0.732v1.901h1.997v4.998c0 0.609 0.063 1.074 0.191 1.396 0.128 0.32 0.358 0.625 0.688 0.909 0.331 0.287 0.73 0.504 1.199 0.658 0.467 0.153 1.007 0.233 1.618 0.233 0.537 0 1.016-0.058 1.477-0.164 0.462-0.108 0.979-0.295 1.551-0.564v-2.1c-0.673 0.441-1.322 0.662-1.997 0.662z" fill="#fff"/></svg><svg xmlns:xlink="http://www.w3.org/1999/xlink" id="tw25" xml:space="preserve" height="27" viewBox="-1 -1 27 27" width="27" version="1.1" y="297" x="0px" enable-background="new 0 0 25 25"><path d="m22.5 0h-20c-1.38 0-2.5 1.12-2.5 2.5v20c0 1.379 1.12 2.5 2.5 2.5h20c1.379 0 2.5-1.121 2.5-2.5v-20c0-1.38-1.121-2.5-2.5-2.5z" fill="#55ACEE"/><path d="m18.916 8.193c0.648-0.393 1.146-1.015 1.382-1.76-0.608 0.365-1.278 0.631-1.995 0.772-0.576-0.618-1.394-1.005-2.297-1.005-2.025 0-3.518 1.915-3.06 3.906-2.612-0.133-4.93-1.4-6.479-3.324-0.823 1.429-0.427 3.301 0.973 4.248-0.516-0.018-1-0.159-1.423-0.398-0.035 1.477 1.01 2.853 2.52 3.159-0.442 0.124-0.928 0.148-1.419 0.057 0.399 1.262 1.561 2.184 2.935 2.209-1.32 1.049-2.985 1.518-4.653 1.318 1.388 0.9 3.042 1.426 4.818 1.426 5.835 0 9.132-4.986 8.937-9.46 0.611-0.448 1.144-1.009 1.568-1.645-0.567 0.249-1.17 0.42-1.807 0.497z" fill="#fff"/></svg><svg xmlns:xlink="http://www.w3.org/1999/xlink" id="vk25" xml:space="preserve" height="27" viewBox="-1 -1 27 27" width="27" version="1.1" y="324" x="0px" enable-background="new 0 0 25 25"><path d="m22.5 0h-20c-1.38 0-2.5 1.12-2.5 2.5v20c0 1.379 1.12 2.5 2.5 2.5h20c1.379 0 2.5-1.121 2.5-2.5v-20c0-1.38-1.121-2.5-2.5-2.5z" fill="#45668E"/><path d="m18.611 14.502c-1.289-1.245-1.354-1.268-0.238-2.768 1.383-1.85 3.002-4.244 1.406-4.244h-2.453c-0.594 0-0.643 0.356-0.848 0.874-0.769 1.858-2.188 4.692-2.737 4.322-0.573-0.39-0.31-1.735-0.267-4.002 0.014-0.597 0.006-1.005-0.878-1.22-2.411-0.579-4.246 0.564-3.399 0.725 1.207 0.235 1.219 2.836 0.933 4.004-0.486 2.027-2.545-2.106-3.312-3.918-0.181-0.432-0.238-0.784-0.9-0.784h-2.21c-0.482 0-0.717 0.226-0.547 0.688 0.169 0.466 2.098 4.936 4.379 7.489 2.114 2.359 3.761 1.896 5.215 1.896 0.47 0 0.664-0.318 0.652-0.729-0.023-1.522 0.237-2.092 1.264-1.015 1.149 1.175 1.384 1.613 2.767 1.613h2.14c1.93-0.001 0.393-1.626-0.967-2.931z" fill="#fff"/></svg></svg>
